HIERARCHY
ROOT Hips
{
 OFFSET 0.000000 0.000000 0.000000
 CHANNELS 6 Xposition Yposition Zposition Yrotation Xrotation Zrotation
 JOINT Chest
 {
  OFFSET 0.000000 9.812683 -0.003552
  CHANNELS 3 Yrotation Xrotation Zrotation
  JOINT Chest2
  {
   OFFSET 0.000000 9.777810 0.007248
   CHANNELS 3 Yrotation Xrotation Zrotation
   JOINT Chest3
   {
    OFFSET 0.000000 9.736392 0.000000
    CHANNELS 3 Yrotation Xrotation Zrotation
    JOINT Chest4
    {
     OFFSET 0.000000 9.726454 0.000000
     CHANNELS 3 Yrotation Xrotation Zrotation
     JOINT Neck
     {
      OFFSET 0.000000 14.679095 0.000000
      CHANNELS 3 Yrotation Xrotation Zrotation
      JOINT Head
      {
       OFFSET 0.000000 9.104124 0.015333
       CHANNELS 3 Yrotation Xrotation Zrotation
       End Site
       {
        OFFSET 0.000000 17.313862 0.008094
       }
      }
     }
     JOINT RightCollar
     {
      OFFSET -2.991841 9.728033 0.000000
      CHANNELS 3 Yrotation Xrotation Zrotation
      JOINT RightShoulder
      {
       OFFSET -14.105608 0.000000 0.000000
       CHANNELS 3 Yrotation Xrotation Zrotation
       JOINT RightElbow
       {
        OFFSET -30.920614 0.000000 0.000000
        CHANNELS 3 Yrotation Xrotation Zrotation
        JOINT RightWrist
        {
         OFFSET -25.011638 0.000000 0.000000
         CHANNELS 3 Yrotation Xrotation Zrotation
         End Site
         {
          OFFSET -18.498852 0.000000 0.000000
         }
        }
       }
      }
     }
     JOINT LeftCollar
     {
      OFFSET 2.991841 9.728033 0.000000
      CHANNELS 3 Yrotation Xrotation Zrotation
      JOINT LeftShoulder
      {
       OFFSET 14.105608 0.000000 0.000000
       CHANNELS 3 Yrotation Xrotation Zrotation
       JOINT LeftElbow
       {
        OFFSET 30.920614 0.000000 0.000000
        CHANNELS 3 Yrotation Xrotation Zrotation
        JOINT LeftWrist
        {
         OFFSET 25.011638 0.000000 0.000000
         CHANNELS 3 Yrotation Xrotation Zrotation
         End Site
         {
          OFFSET 18.498852 0.000000 0.000000
         }
        }
       }
      }
     }
    }
   }
  }
 }
 JOINT RightHip
 {
  OFFSET -8.005612 0.017580 0.001776
  CHANNELS 3 Yrotation Xrotation Zrotation
  JOINT RightKnee
  {
   OFFSET 0.000000 -41.413990 -0.001697
   CHANNELS 3 Yrotation Xrotation Zrotation
   JOINT RightAnkle
   {
    OFFSET 0.000000 -40.303361 -0.002870
    CHANNELS 3 Yrotation Xrotation Zrotation
    JOINT RightToe
    {
     OFFSET 0.000000 -7.855341 17.873357
     CHANNELS 3 Yrotation Xrotation Zrotation
     End Site
     {
      OFFSET 0.000000 -1.536332 6.874071
     }
    }
   }
  }
 }
 JOINT LeftHip
 {
  OFFSET 8.005612 0.017580 0.001776
  CHANNELS 3 Yrotation Xrotation Zrotation
  JOINT LeftKnee
  {
   OFFSET 0.000000 -41.413990 -0.001697
   CHANNELS 3 Yrotation Xrotation Zrotation
   JOINT LeftAnkle
   {
    OFFSET 0.000000 -40.303361 -0.002870
    CHANNELS 3 Yrotation Xrotation Zrotation
    JOINT LeftToe
    {
     OFFSET 0.000000 -7.855341 17.873357
     CHANNELS 3 Yrotation Xrotation Zrotation
     End Site
     {
      OFFSET 0.000000 -1.536332 6.874071
     }
    }
   }
  }
 }
}
MOTION
Frames: 15
Frame Time: 0.008333
-79.864148 89.760153 -67.143327 25.334529 -16.985426 -0.229619 0.418698 -0.578081 1.671596 0.275054 -0.295201 0.963687 0.343042 -0.369720 1.204392 0.275058 -0.295200 0.963690 8.545717 35.721301 1.251847 9.571076 16.258055 -0.412622 -5.812673 4.908578 -0.710140 -29.821369 -3.365047 79.592129 62.141619 -68.630895 -22.021094 10.667883 -23.021848 -12.051993 0.508592 3.358204 1.948377 43.652087 7.687328 -74.873718 -21.202769 -48.014770 -12.968854 3.532689 -11.565128 -2.148635 -11.196975 6.732079 -2.350137 -45.660013 21.713404 -11.173657 -20.108121 -10.679332 8.368271 0.092371 0.403243 0.177868 -6.487275 2.047792 12.466141 -29.890245 18.603952 -9.033074 -11.457730 -3.581785 -2.547945 0.405326 -8.021242 -3.055850
-79.739852 89.780395 -67.139899 25.870220 -16.771624 -0.384758 0.463445 -0.538357 1.652647 0.296217 -0.272790 0.938613 0.369574 -0.341742 1.173050 0.296221 -0.272789 0.938616 8.927133 35.605605 1.148264 10.039658 16.139457 -0.613913 -5.866645 5.070722 -0.661727 -29.559952 -3.068873 80.248799 60.107955 -69.340823 -21.539668 10.777874 -23.114705 -12.585958 0.427442 3.420111 1.931677 43.250555 7.822148 -75.378277 -20.359120 -47.514354 -13.082931 3.756012 -11.550320 -2.207697 -11.362960 6.736840 -2.263932 -45.824661 21.424174 -11.054882 -20.176277 -10.583300 8.301719 0.108003 0.420072 0.212717 -6.583754 1.992551 12.474516 -29.901506 19.116354 -9.153159 -11.479594 -3.659179 -2.664222 0.391811 -8.835866 -3.070180
-79.610037 89.796513 -67.136338 26.430160 -16.567615 -0.536998 0.502997 -0.500636 1.626349 0.316346 -0.248542 0.916342 0.394811 -0.311465 1.145216 0.316349 -0.248542 0.916345 9.299936 35.483426 1.031143 10.502148 16.013943 -0.829110 -5.903878 5.239943 -0.607992 -29.304078 -2.829622 80.882433 57.849049 -70.035000 -20.840567 10.927083 -23.216075 -13.187834 0.319958 3.469797 1.894301 42.802859 7.939485 -75.861496 -19.483940 -47.046363 -13.168823 3.837308 -11.597773 -2.193179 -11.530275 6.746711 -2.192023 -45.988389 21.152038 -10.938534 -20.258975 -10.485876 8.242124 0.119061 0.435839 0.244576 -6.682832 1.931554 12.479384 -29.887885 19.628578 -9.254044 -11.518578 -3.726660 -2.768407 0.374907 -9.565960 -3.016813
-79.472933 89.810169 -67.130556 27.006901 -16.387793 -0.688941 0.547419 -0.451878 1.597148 0.335423 -0.222555 0.895737 0.418735 -0.279011 1.119471 0.335427 -0.222555 0.895740 9.665683 35.352811 0.908266 10.958531 15.878448 -1.049676 -5.917155 5.396285 -0.543387 -29.035950 -2.614457 81.476881 55.378251 -70.699904 -19.936981 11.093134 -23.301219 -13.818288 0.187167 3.517965 1.837819 42.288190 8.045098 -76.341528 -18.642920 -46.635345 -13.176353 3.833998 -11.663907 -2.128638 -11.710031 6.778576 -2.141809 -46.138183 20.899869 -10.824150 -20.328174 -10.363571 8.209275 0.104977 0.424213 0.255966 -6.780016 1.874802 12.479349 -29.839549 20.149760 -9.328674 -11.580373 -3.772335 -2.866088 0.364543 -10.240704 -2.915419
-79.327158 89.821080 -67.126742 27.629472 -16.209599 -0.836505 0.572314 -0.415547 1.554060 0.353948 -0.194574 0.875735 0.441969 -0.244060 1.094483 0.353951 -0.194574 0.875738 10.023522 35.213178 0.787285 11.405986 15.731520 -1.266670 -5.912522 5.520635 -0.470715 -28.727465 -2.397468 82.029036 52.715813 -71.312710 -18.857015 11.245043 -23.353286 -14.433693 0.057750 3.575124 1.793565 41.672105 8.155747 -76.856891 -17.879150 -46.283786 -13.073848 3.782433 -11.712184 -2.033580 -11.933434 6.810165 -2.119396 -46.279996 20.662071 -10.713280 -20.411535 -10.252642 8.201222 0.097263 0.426229 0.256974 -6.896368 1.794834 12.463667 -29.753218 20.685529 -9.374378 -11.656795 -3.815293 -2.953436 0.358519 -10.853133 -2.788150
-79.173705 89.830286 -67.121897 28.280739 -16.041635 -0.990359 0.595904 -0.382347 1.515242 0.372566 -0.165564 0.855146 0.465320 -0.207822 1.068766 0.372569 -0.165563 0.855149 10.372765 35.067676 0.674295 11.842385 15.577121 -1.472877 -5.903457 5.618145 -0.398664 -28.361023 -2.179016 82.549540 49.846925 -71.844171 -17.594995 11.351987 -23.359155 -14.988546 -0.066138 3.643256 1.774178 40.967200 8.276820 -77.420619 -17.201319 -45.972581 -12.859717 3.689565 -11.720932 -1.910354 -12.179155 6.851822 -2.100651 -46.423237 20.428991 -10.616962 -20.498637 -10.132091 8.218594 0.089816 0.422564 0.248425 -6.998778 1.696791 12.451512 -29.638192 21.237480 -9.396267 -11.752826 -3.837028 -3.027465 0.364928 -11.431490 -2.649695
-79.013440 89.838087 -67.114498 28.956786 -15.882397 -1.157762 0.620575 -0.347458 1.491344 0.391467 -0.137630 0.832674 0.489020 -0.172925 1.040697 0.391470 -0.137630 0.832677 10.712650 34.921056 0.572403 12.266257 15.421588 -1.664451 -5.899411 5.699399 -0.331991 -27.943270 -1.977324 83.056477 46.716944 -72.246026 -16.111733 11.384104 -23.312086 -15.438333 -0.207586 3.714350 1.755812 40.226494 8.390707 -78.005552 -16.581979 -45.675911 -12.565824 3.534553 -11.688838 -1.745638 -12.438014 6.902932 -2.068808 -46.561499 20.202277 -10.540302 -20.603613 -10.005114 8.262482 0.081132 0.413961 0.234711 -7.060189 1.573446 12.460989 -29.529034 21.803180 -9.420004 -11.853273 -3.830115 -3.065231 0.385692 -11.989474 -2.522086
-78.843394 89.845355 -67.101553 29.637893 -15.748073 -1.325248 0.666542 -0.286449 1.477110 0.410831 -0.112700 0.808639 0.513290 -0.141780 1.010673 0.410835 -0.112700 0.808642 11.040105 34.777402 0.479657 12.674492 15.270234 -1.842905 -5.907795 5.765081 -0.279624 -27.491669 -1.805680 83.568257 43.285851 -72.462004 -14.382576 11.324836 -23.210686 -15.747642 -0.357311 3.785142 1.727513 39.456782 8.470658 -78.589463 -15.950805 -45.376227 -12.251085 3.288029 -11.634461 -1.521763 -12.686821 6.979135 -2.034229 -46.686265 19.987775 -10.476874 -20.721116 -9.859629 8.329556 0.063034 0.381512 0.216552 -7.029284 1.437574 12.496240 -29.490449 22.358822 -9.499675 -11.892679 -3.791589 -3.013671 0.392630 -12.519637 -2.439988
-78.663782 89.850134 -67.089178 30.347315 -15.596191 -1.481669 0.710907 -0.238248 1.456873 0.431629 -0.090825 0.783492 0.539341 -0.114452 0.979258 0.431632 -0.090825 0.783494 11.353537 34.640503 0.393450 13.065868 15.128141 -2.010822 -5.931011 5.818713 -0.253266 -27.017322 -1.669863 84.102170 39.585080 -72.453415 -12.441320 11.175812 -23.049525 -15.900479 -0.504811 3.857940 1.699851 38.651554 8.499334 -79.162635 -15.233655 -45.053967 -11.971406 2.936866 -11.593399 -1.232865 -12.952462 7.036874 -2.012825 -46.802200 19.787371 -10.420922 -20.870876 -9.745724 8.407185 0.061065 0.379611 0.208190 -6.898340 1.248812 12.554675 -29.555490 22.876781 -9.658609 -11.877355 -3.678964 -2.875992 0.395258 -13.053289 -2.392055
-78.473335 89.853355 -67.073301 31.071114 -15.444198 -1.628900 0.764565 -0.188016 1.435010 0.454132 -0.070827 0.756967 0.567517 -0.089471 0.946121 0.454135 -0.070827 0.756970 11.653366 34.512702 0.313849 13.440880 14.998418 -2.168151 -5.965802 5.865838 -0.258104 -26.507131 -1.566868 84.664148 35.710322 -72.217428 -10.370541 10.953696 -22.822117 -15.904953 -0.683150 3.924765 1.664110 37.861083 8.467608 -79.691183 -14.387023 -44.676988 -11.757569 2.500420 -11.604672 -0.900774 -13.238409 7.094095 -2.012028 -46.911761 19.598904 -10.371663 -21.017788 -9.630426 8.493340 0.061296 0.376430 0.204882 -6.648034 1.030469 12.636558 -29.679419 23.357855 -9.861035 -11.840724 -3.525600 -2.701433 0.393509 -13.561931 -2.349543
-78.271962 89.855105 -67.053331 31.817033 -15.288451 -1.772684 0.819655 -0.141537 1.414574 0.476865 -0.052755 0.728904 0.595975 -0.066891 0.911061 0.476868 -0.052755 0.728907 11.938437 34.395048 0.242832 13.797582 14.881894 -2.312328 -5.996670 5.909212 -0.287894 -25.940105 -1.491268 85.243612 31.789876 -71.772253 -8.281355 10.677714 -22.532472 -15.778142 -0.909737 3.976943 1.600357 37.124161 8.379507 -80.144356 -13.422310 -44.223001 -11.600880 2.036561 -11.677991 -0.571377 -13.570032 7.150841 -2.032694 -47.010515 19.417410 -10.326367 -21.152748 -9.509405 8.585824 0.062210 0.370409 0.205345 -6.315153 0.790406 12.735873 -29.787798 23.810709 -10.069070 -11.811384 -3.361711 -2.531242 0.391216 -14.022786 -2.289600
-78.058082 89.855614 -67.029768 32.592566 -15.126479 -1.909120 0.870312 -0.101601 1.390799 0.498804 -0.037185 0.699493 0.623433 -0.047433 0.874315 0.498807 -0.037185 0.699495 12.207211 34.288286 0.182869 14.133403 14.778868 -2.440141 -6.015669 5.943544 -0.329367 -25.291931 -1.437932 85.826005 27.969536 -71.138297 -6.304143 10.347900 -22.189921 -15.530469 -1.168183 4.029024 1.514505 36.426336 8.252049 -80.541640 -12.408806 -43.687731 -11.450625 1.624117 -11.795511 -0.299914 -13.953314 7.210740 -2.080729 -47.101860 19.235158 -10.276179 -21.277398 -9.384786 8.685403 0.061492 0.366058 0.205309 -5.952530 0.536438 12.833904 -29.834051 24.238743 -10.271439 -11.779877 -3.199726 -2.367115 0.386481 -14.425338 -2.215559
-77.835744 89.855758 -66.998584 33.391599 -14.963625 -2.073193 0.922398 -0.066015 1.398579 0.519769 -0.023465 0.670144 0.649667 -0.030281 0.837647 0.519772 -0.023465 0.670147 12.457772 34.192101 0.133788 14.445865 14.688233 -2.551372 -6.028659 5.956460 -0.374523 -24.537145 -1.389127 86.399122 24.376084 -70.346084 -4.536786 9.952454 -21.793764 -15.172955 -1.429172 4.099946 1.430014 35.723743 8.109048 -80.924995 -11.426246 -43.078418 -11.246486 1.329542 -11.926951 -0.133089 -14.360042 7.294490 -2.115711 -47.198071 19.042450 -10.215999 -21.406326 -9.266952 8.789083 0.068312 0.377784 0.207243 -5.594688 0.281505 12.953220 -29.804261 24.649265 -10.471919 -11.740684 -3.029694 -2.191472 0.390845 -14.784994 -2.141679
-77.593635 89.855840 -66.965674 34.224215 -14.806581 -2.197385 0.968241 -0.031821 1.364078 0.539914 -0.010243 0.642095 0.674874 -0.013750 0.802603 0.539917 -0.010243 0.642097 12.687674 34.104268 0.095220 14.731758 14.606075 -2.645967 -6.036847 5.947913 -0.418909 -23.677245 -1.330967 86.962681 21.083446 -69.418442 -3.019905 9.489618 -21.333086 -14.718685 -1.677230 4.190156 1.357149 34.982156 7.973911 -81.317546 -10.529740 -42.419881 -10.949356 1.184985 -12.024315 -0.092369 -14.794694 7.396645 -2.201023 -47.306798 18.832207 -10.145543 -21.520356 -9.134664 8.897082 0.069448 0.382671 0.207469 -5.277832 0.024135 13.013278 -29.706172 25.051106 -10.677401 -11.655435 -2.865317 -1.980435 0.380915 -15.094388 -2.089724
-77.336738 89.856330 -66.928313 35.086954 -14.655691 -2.317811 1.012316 -0.001810 1.320274 0.560344 0.002821 0.616141 0.700434 0.002585 0.770180 0.560347 0.002821 0.616144 12.896441 34.022985 0.068015 14.989991 14.529365 -2.722867 -6.046292 5.929257 -0.462828 -22.729264 -1.257590 87.524816 18.112464 -68.352823 -1.748336 8.969821 -20.792402 -14.179397 -1.933945 4.284947 1.286335 34.209796 7.858739 -81.719876 -9.741871 -41.748041 -10.547773 1.188640 -12.031756 -0.163235 -15.242477 7.527309 -2.296313 -47.428622 18.603069 -10.064733 -21.636009 -8.998882 9.007394 0.074098 0.392994 0.209859 -5.005561 -0.236331 13.046697 -29.556466 25.447668 -10.893136 -11.537466 -2.699462 -1.749939 0.365868 -15.365046 -2.040579
